<?xml version="1.0" standalone="no"?>
<!DOCTYPE svg PUBLIC "-//W3C//DTD SVG 20010904//EN"
 "http://www.w3.org/TR/2001/REC-SVG-20010904/DTD/svg10.dtd">
<svg version="1.0" xmlns="http://www.w3.org/2000/svg"
 width="216.000000pt" height="216.000000pt" viewBox="0 0 216.000000 216.000000"
 preserveAspectRatio="xMidYMid meet">
<metadata>
Created by potrace 1.11, written by Peter Selinger 2001-2013
</metadata>
<g transform="translate(0.000000,216.000000) scale(0.100000,-0.100000)"
fill="#000000" stroke="none">
<path d="M960 2150 c-382 -52 -688 -272 -849 -610 -141 -297 -141 -622 -1
-917 34 -73 60 -104 60 -73 0 6 9 10 20 10 11 0 20 5 20 10 0 6 -11 8 -27 4
-24 -6 -26 -5 -16 8 7 8 10 18 7 21 -5 5 135 188 363 475 83 104 83 96 23 200
-21 37 -53 103 -71 147 -30 74 -33 89 -33 195 -1 97 3 127 23 188 14 39 27 72
30 72 3 0 6 -39 6 -88 0 -165 72 -273 321 -483 84 -72 102 -78 144 -54 14 8
34 14 45 15 17 0 20 -7 22 -45 1 -29 -2 -45 -9 -45 -9 0 -9 -3 -1 -11 5 -5 22
-7 36 -4 22 6 25 11 22 38 -2 18 -10 36 -18 42 -23 17 -14 59 14 64 13 1 27 8
31 15 6 8 8 8 8 -1 0 -18 85 -63 119 -63 27 0 31 -4 42 -42 6 -24 13 -49 15
-57 3 -9 14 -12 34 -9 17 3 30 1 30 -4 0 -4 -4 -8 -10 -8 -5 0 -7 -6 -4 -14 5
-13 -44 -124 -67 -152 -44 -53 -4 56 42 115 23 29 24 41 3 41 -8 0 -13 -4 -10
-9 3 -5 -10 -32 -29 -60 -19 -29 -44 -70 -57 -93 l-23 -40 -7 38 c-4 22 -7 76
-7 122 -1 53 -6 93 -16 112 -11 22 -12 29 -2 33 8 3 4 12 -12 28 -14 13 -19
16 -12 7 15 -21 9 -23 -22 -7 l-22 10 21 -18 c20 -17 21 -28 22 -180 1 -109
-3 -165 -10 -169 -7 -5 -9 0 -6 14 4 12 2 22 -4 22 -5 0 -6 10 -2 23 11 33 5
89 -11 108 -19 20 -19 29 0 29 8 0 15 5 15 10 0 6 -4 10 -10 10 -5 0 -10 6
-10 14 0 20 -16 29 -18 11 -1 -8 -2 -32 -3 -52 0 -21 -5 -46 -10 -55 -6 -11
-5 -19 2 -24 6 -3 9 -17 7 -29 -4 -18 -1 -22 11 -18 11 3 9 -1 -5 -14 -21 -18
-35 -45 -43 -80 -1 -5 -8 3 -15 17 -8 14 -12 29 -9 34 4 5 1 6 -5 2 -6 -3 -13
-2 -17 4 -8 13 -65 13 -65 0 0 -10 19 -14 52 -11 9 1 20 -4 24 -10 5 -9 2 -10
-9 -6 -9 3 -18 0 -21 -9 -3 -8 0 -14 7 -14 7 -1 5 -6 -5 -14 -10 -7 -18 -17
-18 -21 0 -5 9 0 20 10 11 10 17 22 14 26 -3 5 0 9 6 9 14 0 9 -41 -7 -57 -6
-7 -17 -11 -25 -8 -8 3 -19 -8 -27 -27 -8 -18 -16 -27 -19 -20 -2 7 -8 10 -13
6 -5 -3 -9 5 -9 17 0 18 -2 19 -15 9 -11 -9 -15 -9 -15 -1 0 7 -5 9 -12 4 -21
-13 -61 -15 -53 -3 4 7 -2 9 -18 5 -18 -5 -28 -2 -37 12 -10 16 -11 16 -6 1 5
-16 -1 -18 -47 -17 -29 1 -42 4 -31 6 24 5 34 37 34 108 0 24 11 68 25 99 14
32 21 55 16 52 -5 -4 -11 -1 -13 6 -3 9 -6 9 -12 0 -4 -7 -3 -12 2 -12 6 0 5
-10 -1 -25 -7 -14 -15 -25 -19 -25 -5 0 -8 -7 -8 -15 0 -8 -7 -15 -15 -15 -9
0 -15 9 -15 25 0 14 -5 25 -11 25 -5 0 -7 5 -4 10 3 6 2 10 -4 10 -6 0 -13
-16 -17 -36 -4 -19 -12 -38 -20 -41 -7 -2 -18 -20 -24 -39 -7 -19 -20 -39 -31
-44 -14 -8 -18 -17 -13 -34 5 -23 -16 -56 -37 -56 -16 0 -10 -18 9 -23 14 -4
14 -6 -5 -12 -13 -4 -23 -12 -23 -17 0 -5 4 -6 10 -3 6 4 9 -5 8 -19 -3 -28
-18 -39 -37 -26 -16 9 -16 20 1 32 11 8 11 9 0 6 -8 -2 -13 -7 -12 -12 1 -5
-5 -13 -14 -18 -21 -12 -11 -29 12 -21 15 6 15 5 2 -11 -8 -11 -16 -14 -18 -7
-2 6 -13 11 -25 11 l-22 -1 23 -19 c14 -11 20 -24 16 -31 -5 -9 -10 -5 -15 10
-5 12 -14 21 -21 20 -24 -4 -47 12 -41 29 6 19 -63 -48 -87 -83 -8 -12 -28
-41 -43 -64 -22 -33 -32 -41 -47 -36 -27 8 -25 1 10 -50 113 -165 271 -292
468 -377 l62 -27 0 129 c0 121 1 130 19 130 15 0 21 -12 31 -67 19 -100 25
-103 40 -19 12 70 15 76 36 76 21 0 24 -5 24 -34 0 -29 4 -34 28 -38 43 -6 52
0 52 38 0 27 4 34 20 34 17 0 20 -7 21 -52 l1 -53 24 52 c17 39 29 53 44 53
25 0 25 -6 -1 -75 l-21 -56 21 -78 c26 -94 25 -91 1 -91 -14 0 -22 11 -29 38
-6 20 -11 43 -11 50 0 17 -17 15 -24 -4 -3 -9 -6 -31 -6 -49 0 -18 -6 -36 -12
-38 -7 -3 33 -6 90 -6 88 -1 101 1 90 13 -8 9 -17 11 -23 5 -34 -34 -57 21
-53 132 3 76 5 84 23 84 18 0 20 -8 25 -95 l6 -95 4 95 c5 89 6 95 28 98 22 3
22 2 22 -112 0 -96 3 -116 15 -116 13 0 15 23 15 150 l0 150 39 0 c40 0 56
-11 63 -45 3 -15 10 -19 30 -17 l27 3 4 -88 3 -88 2 88 c2 86 2 87 27 87 25 0
25 -1 25 -90 0 -50 3 -90 6 -90 14 0 204 104 246 135 34 25 46 40 42 52 -5 15
-4 16 5 3 9 -12 23 -2 86 60 65 64 75 79 71 101 -4 23 -2 26 17 23 20 -4 19
-3 -3 8 -18 9 -25 21 -25 40 1 32 19 56 29 39 4 -6 2 -11 -3 -11 -17 0 -13
-30 4 -36 8 -4 13 -9 10 -13 -2 -4 3 -8 11 -8 8 0 13 5 11 11 -2 6 5 17 17 24
16 10 17 12 3 8 -12 -4 -17 -2 -14 6 2 7 13 12 23 10 15 -2 16 -1 4 7 -9 7
-19 6 -27 -1 -10 -8 -17 -6 -28 8 -8 10 -15 25 -16 32 -1 6 -2 16 -3 22 0 5
-7 15 -13 22 -10 10 -13 9 -13 -1 0 -7 -5 -9 -12 -5 -7 4 -8 3 -4 -5 4 -6 12
-9 17 -6 5 4 9 0 9 -9 0 -8 -6 -17 -12 -19 -7 -3 -4 -6 7 -6 29 -1 4 -22 -37
-30 -18 -4 -32 -11 -30 -16 2 -6 -9 -15 -25 -22 -22 -10 -24 -12 -8 -13 18 -1
18 -2 3 -11 -11 -6 -15 -16 -11 -26 5 -11 3 -14 -6 -8 -10 6 -11 3 -2 -14 13
-23 0 -29 -16 -8 -10 12 -10 22 3 66 5 16 4 22 -4 17 -6 -3 -13 -2 -16 3 -9
14 20 21 33 8 9 -9 14 -8 21 3 7 12 2 17 -25 25 -26 7 -32 14 -26 24 5 7 15
10 22 7 8 -4 7 -2 -2 6 -21 18 -31 48 -16 48 20 0 40 -17 33 -28 -3 -5 1 -13
10 -16 22 -9 31 -7 16 3 -7 4 -14 18 -15 30 -1 12 -6 20 -13 17 -18 -7 -25 5
-13 20 15 18 -17 32 -34 15 -6 -6 -19 -11 -28 -11 -10 0 -19 -6 -22 -12 -2 -7
-7 -10 -11 -7 -4 4 2 32 12 63 10 31 15 56 10 56 -4 0 1 9 12 20 11 11 20 28
20 38 0 10 5 23 11 29 16 16 3 60 -16 60 -9 0 -14 -6 -11 -14 3 -8 1 -11 -4
-8 -6 3 -10 13 -10 21 0 12 -4 12 -20 4 -11 -6 -20 -7 -20 -3 0 4 -4 2 -9 -5
-7 -12 -12 -12 -30 -1 -11 8 -21 21 -21 31 0 27 -11 48 -26 48 -8 0 -14 7 -14
16 0 8 5 12 11 8 17 -10 -5 26 -33 56 -13 13 -24 31 -25 40 -1 8 -5 44 -9 80
-3 36 -11 70 -18 75 -6 6 -12 29 -14 52 -3 40 -1 44 32 60 l36 17 -5 65 c-12
170 -14 277 -5 291 10 16 11 16 215 -33 89 -22 104 -23 134 -11 18 8 42 14 52
14 11 0 19 4 19 9 0 20 -184 201 -252 248 -131 91 -272 151 -415 179 -97 18
-243 25 -323 14z m380 -184 c31 -9 52 -23 68 -46 37 -54 26 -135 -13 -102 -6
4 -45 6 -87 4 -67 -3 -78 -6 -84 -24 -5 -18 -12 -20 -49 -14 -29 3 -56 0 -79
-9 -62 -26 -70 -22 -62 33 3 26 16 67 29 92 l22 45 84 5 c55 3 86 9 89 18 5
15 26 15 82 -2z m-111 -241 c2 -11 11 -27 21 -35 9 -8 20 -25 24 -38 7 -20 9
-20 22 -7 9 9 33 15 57 15 32 0 46 6 64 27 13 14 23 36 24 47 0 21 1 21 9 1 5
-11 9 -37 9 -57 1 -35 -1 -38 -28 -38 -36 0 -61 -23 -61 -56 0 -21 -3 -24 -27
-18 -50 11 -55 14 -50 33 3 12 -4 23 -23 35 -25 14 -29 14 -40 1 -7 -8 -20
-15 -30 -15 -10 0 -20 -6 -23 -14 -7 -16 30 -50 39 -35 6 11 44 -17 44 -32 0
-5 -18 -14 -40 -20 -22 -7 -45 -18 -51 -26 -13 -15 -9 -16 23 -4 13 4 41 11
63 15 37 6 39 5 21 -9 -11 -8 -28 -15 -37 -15 -10 0 -25 -7 -33 -15 -13 -13
-13 -20 -3 -36 10 -17 9 -22 -7 -35 -21 -15 -55 -10 -68 10 -5 7 -8 6 -8 -4
-1 -27 -52 46 -71 101 -19 55 -17 145 3 133 18 -11 108 7 108 22 0 8 4 14 10
14 5 0 13 18 16 40 5 30 11 40 23 38 9 -2 17 -12 20 -23z m116 -25 c3 -5 1
-10 -4 -10 -6 0 -11 5 -11 10 0 6 2 10 4 10 3 0 8 -4 11 -10z m-210 -20 c3 -5
1 -10 -4 -10 -6 0 -11 5 -11 10 0 6 2 10 4 10 3 0 8 -4 11 -10z m365 -167 c0
-2 -4 -2 -9 2 -5 3 -11 -3 -13 -12 -3 -10 -5 2 -6 26 l-1 44 15 -28 c8 -15 14
-29 14 -32z m-55 -303 c-3 -5 -13 -10 -21 -10 -8 0 -19 -12 -25 -26 -5 -15
-12 -24 -16 -21 -3 4 0 20 7 37 9 22 19 30 37 30 14 0 21 -4 18 -10z m-15 -24
c0 -3 -4 -8 -10 -11 -5 -3 -10 -1 -10 4 0 6 5 11 10 11 6 0 10 -2 10 -4z
m-167 -253 c-3 -10 -13 -27 -21 -38 l-14 -20 7 20 c4 11 10 28 12 38 3 9 9 17
14 17 5 0 6 -8 2 -17z m-153 -23 c0 -5 -5 -10 -11 -10 -5 0 -7 5 -4 10 3 6 8
10 11 10 2 0 4 -4 4 -10z m490 -74 c0 -3 -4 -8 -10 -11 -5 -3 -10 -1 -10 4 0
6 5 11 10 11 6 0 10 -2 10 -4z m-940 -20 c0 -3 -4 -8 -10 -11 -5 -3 -10 -1
-10 4 0 6 5 11 10 11 6 0 10 -2 10 -4z m178 -41 c-7 -7 -24 -16 -38 -19 -21
-5 -20 -3 5 9 31 15 28 18 -15 17 l-25 -1 25 8 c14 4 33 5 43 3 15 -4 16 -7 5
-17z m-218 -9 c0 -2 -12 -11 -26 -21 -25 -16 -25 -16 -14 4 9 17 40 30 40 17z
m366 -31 c-16 -17 -46 -20 -46 -6 0 8 13 13 53 20 5 0 2 -6 -7 -14z m-89 -31
c-3 -3 -12 -4 -19 -1 -8 3 -5 6 6 6 11 1 17 -2 13 -5z m228 -34 c3 -6 -1 -7
-9 -4 -18 7 -21 14 -7 14 6 0 13 -4 16 -10z m-760 -10 c-3 -5 2 -10 12 -10 15
0 16 -2 3 -10 -10 -6 -16 -6 -18 1 -3 6 -10 5 -20 -3 -14 -12 -14 -11 -1 10 8
12 17 22 22 22 4 0 5 -4 2 -10z m30 -65 c0 -14 0 -25 -2 -25 -13 0 -53 22 -53
29 0 6 6 8 14 5 7 -3 16 3 20 12 8 22 19 11 21 -21z m-92 -40 c-10 -8 -20 -9
-21 -4 -2 5 -9 6 -14 3 -7 -4 -8 -2 -4 4 4 6 13 9 21 5 8 -3 15 0 15 7 0 6 5
8 11 5 6 -5 4 -12 -8 -20z m1179 -55 c30 0 117 -43 130 -64 5 -7 8 -6 9 4 1 8
2 20 4 25 1 6 3 22 3 38 2 19 7 27 21 27 22 0 32 -30 19 -54 -5 -9 -6 -21 -3
-27 4 -5 -3 -19 -15 -29 l-22 -19 36 -22 c34 -20 74 -75 63 -86 -3 -2 -29 19
-58 46 -30 28 -65 54 -79 57 -14 4 -35 13 -48 21 -18 11 -27 12 -37 3 -11 -9
-20 -5 -42 20 -61 68 -69 76 -98 98 -24 19 -17 17 29 -7 33 -17 73 -31 88 -31z
m468 6 c0 -3 -4 -8 -10 -11 -5 -3 -10 -1 -10 4 0 6 5 11 10 11 6 0 10 -2 10
-4z m-210 -61 c0 -8 -4 -15 -8 -15 -5 0 -9 7 -9 15 0 8 4 15 9 15 4 0 8 -7 8
-15z m83 -10 c4 -8 3 -16 -1 -19 -4 -3 -9 4 -9 15 -2 23 3 25 10 4z m-113 -15
c0 -5 -2 -10 -4 -10 -3 0 -8 5 -11 10 -3 6 -1 10 4 10 6 0 11 -4 11 -10z"/>
<path d="M1120 1500 c0 -11 2 -20 5 -20 2 0 9 9 15 20 9 16 8 20 -5 20 -8 0
-15 -9 -15 -20z"/>
<path d="M1485 483 c6 -6 31 -22 58 -37 35 -20 47 -23 47 -13 0 8 -8 17 -17
20 -10 3 -36 12 -58 22 -22 9 -35 13 -30 8z"/>
<path d="M1121 1233 c-1 -17 16 -25 25 -12 4 7 3 9 -4 5 -5 -3 -13 0 -15 6 -4
9 -6 10 -6 1z"/>
<path d="M953 1128 c-18 -23 -25 -43 -8 -23 9 11 21 19 26 18 5 -2 9 2 9 7 0
14 -16 12 -27 -2z"/>
<path d="M965 1100 c-3 -5 -1 -10 4 -10 6 0 11 5 11 10 0 6 -2 10 -4 10 -3 0
-8 -4 -11 -10z"/>
<path d="M1809 1083 c-13 -17 -13 -17 6 -3 11 8 22 16 24 17 2 2 0 3 -6 3 -6
0 -17 -8 -24 -17z"/>
<path d="M1864 1087 c3 -11 1 -17 -7 -16 -39 5 -35 -5 8 -17 63 -17 65 -17 65
1 0 8 -5 15 -11 15 -5 0 -7 -5 -3 -12 5 -8 2 -9 -10 -5 -10 4 -22 7 -27 7 -6
0 -8 4 -5 8 2 4 0 14 -6 22 -8 12 -9 12 -4 -3z"/>
<path d="M910 1060 c-6 -11 -8 -20 -6 -20 3 0 10 9 16 20 6 11 8 20 6 20 -3 0
-10 -9 -16 -20z"/>
<path d="M1785 1050 c-3 -6 1 -7 9 -4 18 7 21 14 7 14 -6 0 -13 -4 -16 -10z"/>
<path d="M1808 1032 c-10 -2 -18 -8 -18 -13 0 -13 27 -11 35 2 9 13 4 16 -17
11z"/>
<path d="M1940 1036 c0 -2 8 -10 18 -17 15 -13 16 -12 3 4 -13 16 -21 21 -21
13z"/>
<path d="M1060 986 c0 -9 5 -16 10 -16 6 0 10 4 10 9 0 6 -4 13 -10 16 -5 3
-10 -1 -10 -9z"/>
<path d="M1778 988 c-20 -17 -28 -42 -19 -57 10 -16 34 12 37 45 3 28 3 28
-18 12z"/>
<path d="M1617 929 c4 -13 8 -18 11 -10 2 7 -1 18 -6 23 -8 8 -9 4 -5 -13z"/>
<path d="M1726 923 c-6 -14 -5 -15 5 -6 7 7 10 15 7 18 -3 3 -9 -2 -12 -12z"/>
<path d="M1050 914 c0 -8 5 -12 10 -9 6 4 8 11 5 16 -9 14 -15 11 -15 -7z"/>
<path d="M1871 849 c-14 -11 -25 -28 -26 -37 -2 -32 -40 -101 -57 -105 -19 -5
-25 -37 -8 -37 6 0 10 7 10 17 0 18 10 12 14 -9 4 -32 17 -40 37 -22 15 14 17
20 6 32 -10 13 -9 15 6 9 28 -10 20 11 -10 27 -16 8 -22 15 -14 16 8 0 12 3 8
6 -6 7 33 54 45 54 4 0 7 -18 6 -40 -2 -22 0 -39 3 -37 3 1 13 -4 21 -11 13
-10 16 -9 21 9 4 15 0 23 -12 26 -22 6 -37 73 -20 84 7 4 8 13 3 22 -8 13 -12
13 -33 -4z"/>
<path d="M855 840 c-3 -5 -3 -15 1 -21 6 -11 23 6 24 24 0 10 -18 9 -25 -3z"/>
<path d="M1976 786 c3 -9 11 -16 16 -16 13 0 5 23 -10 28 -7 2 -10 -2 -6 -12z"/>
<path d="M1952 760 c14 -22 24 -19 15 5 -4 8 -11 15 -17 15 -6 0 -6 -7 2 -20z"/>
<path d="M2007 753 c-10 -10 -8 -25 2 -18 5 3 19 -7 32 -22 13 -17 20 -21 16
-10 -4 10 -7 23 -7 28 0 6 -5 7 -12 3 -8 -5 -9 -2 -5 9 6 17 -13 24 -26 10z"/>
<path d="M1780 734 c0 -8 5 -12 10 -9 6 4 8 11 5 16 -9 14 -15 11 -15 -7z"/>
<path d="M395 730 c4 -6 11 -8 16 -5 14 9 11 15 -7 15 -8 0 -12 -5 -9 -10z"/>
<path d="M1700 681 c0 -18 18 -21 30 -6 10 13 9 15 -9 15 -11 0 -21 -4 -21 -9z"/>
<path d="M1977 677 c3 -6 -2 -16 -11 -22 -14 -11 -15 -13 -1 -19 22 -8 18 -35
-7 -46 -19 -7 -19 -9 -5 -9 10 -1 15 -5 12 -11 -3 -5 -1 -10 5 -10 7 0 10 6 7
14 -4 10 0 12 14 9 21 -6 26 -29 7 -36 -10 -4 -10 -6 -1 -6 11 -1 49 57 41 64
-2 1 -13 8 -26 14 -13 7 -21 18 -19 24 5 17 32 15 32 -2 0 -21 24 -26 31 -6 9
23 -23 54 -57 53 -16 -1 -26 -5 -22 -11z"/>
<path d="M1900 661 c0 -6 4 -13 10 -16 6 -3 7 1 4 9 -7 18 -14 21 -14 7z"/>
<path d="M1844 580 c0 -13 4 -16 10 -10 7 7 7 13 0 20 -6 6 -10 3 -10 -10z"/>
<path d="M1270 234 c0 -21 4 -33 10 -29 6 3 10 19 10 36 0 16 -4 29 -10 29 -5
0 -10 -16 -10 -36z"/>
<path d="M1322 206 c-6 -13 -7 -27 -2 -32 4 -5 10 -18 13 -29 3 -11 5 4 6 33
0 28 -1 52 -2 52 -2 0 -9 -11 -15 -24z"/>
<path d="M937 183 c-4 -3 -7 -42 -7 -85 0 -69 -2 -78 -18 -78 -11 0 -24 10
-30 22 -8 18 -11 19 -11 6 -1 -10 -9 -19 -18 -19 -26 -2 36 -16 75 -18 l32 -1
0 90 c0 83 -5 101 -23 83z"/>
<path d="M770 107 c0 -37 4 -67 10 -67 9 0 3 118 -6 129 -2 2 -4 -26 -4 -62z"/>
<path d="M1270 111 c0 -28 5 -51 10 -51 6 0 10 20 10 44 0 25 -4 48 -10 51 -6
4 -10 -13 -10 -44z"/>
<path d="M819 95 c-4 -33 -5 -62 -3 -64 10 -12 15 12 12 65 l-3 59 -6 -60z"/>
<path d="M1328 79 c-3 -13 -9 -31 -12 -40 -6 -13 -2 -16 18 -12 29 6 31 17 12
52 l-13 24 -5 -24z"/>
</g>
</svg>
