<?xml version="1.0" standalone="no"?>
<!DOCTYPE svg PUBLIC "-//W3C//DTD SVG 20010904//EN"
 "http://www.w3.org/TR/2001/REC-SVG-20010904/DTD/svg10.dtd">
<svg version="1.0" xmlns="http://www.w3.org/2000/svg"
 width="512.000000pt" height="512.000000pt" viewBox="0 0 512.000000 512.000000"
 preserveAspectRatio="xMidYMid meet">
<metadata>
Created by potrace 1.14, written by Peter Selinger 2001-2017
</metadata>
<g transform="translate(0.000000,512.000000) scale(0.100000,-0.100000)"
fill="#000000" stroke="none">
<path d="M0 2560 l0 -2560 2560 0 2560 0 0 2560 0 2560 -2560 0 -2560 0 0
-2560z m2049 1421 c77 -137 141 -252 141 -255 0 -3 -33 -6 -72 -6 l-73 1 -167
254 -167 255 98 0 99 0 141 -249z m320 0 c77 -137 141 -252 141 -255 0 -3 -33
-6 -72 -6 l-73 1 -167 254 -167 255 98 0 99 0 141 -249z m330 0 c77 -137 141
-252 141 -255 0 -3 -33 -6 -72 -6 l-73 1 -167 254 -167 255 98 0 99 0 141
-249z m320 0 c77 -137 141 -252 141 -255 0 -3 -33 -6 -72 -6 l-73 1 -167 254
-167 255 98 0 99 0 141 -249z m-1149 -415 l0 -74 -52 -4 c-63 -5 -117 -29
-138 -60 -12 -19 -16 -85 -20 -368 -5 -339 -5 -346 -28 -386 -23 -39 -92 -94
-119 -94 -25 0 -13 -16 22 -29 59 -21 101 -69 114 -129 7 -33 11 -169 11 -361
0 -304 0 -309 23 -342 24 -36 64 -54 140 -64 l47 -6 0 -75 c0 -53 -4 -74 -13
-74 -7 0 -51 5 -97 10 -100 12 -194 53 -228 100 -52 70 -55 92 -61 455 -5 308
-8 344 -24 369 -19 29 -71 56 -107 56 -18 0 -20 6 -20 79 l0 79 38 7 c20 3 48
13 60 22 48 30 52 60 52 376 0 376 12 445 91 512 54 45 148 73 252 74 l57 1 0
-74z m1587 48 c70 -23 125 -71 154 -136 23 -52 24 -63 29 -398 4 -307 7 -349
22 -373 21 -32 41 -43 91 -52 l37 -7 0 -78 0 -77 -37 -6 c-21 -4 -49 -14 -62
-23 -47 -34 -51 -62 -51 -377 0 -162 -5 -319 -10 -348 -29 -154 -111 -213
-322 -234 l-68 -7 0 76 0 75 48 6 c75 10 115 28 139 64 23 33 23 38 23 342 0
186 4 328 11 359 13 59 57 111 114 131 41 15 44 25 10 33 -32 8 -91 61 -113
100 -15 27 -18 77 -22 376 -4 275 -8 349 -19 366 -23 35 -68 56 -132 61 l-59
6 0 75 0 75 83 -6 c45 -3 106 -14 134 -23z m-976 -446 c-24 -75 -77 -288 -86
-352 -6 -39 -11 -46 -30 -46 -12 0 -50 -3 -85 -7 l-62 -6 7 34 c11 53 104 297
141 371 l34 67 47 3 c27 2 50 2 52 1 1 -1 -6 -30 -18 -65z m398 -45 c-42 -129
-127 -329 -145 -344 -18 -15 -104 -25 -104 -12 0 5 8 34 19 64 18 54 74 282
85 351 l7 36 67 7 c37 3 74 7 82 8 8 2 16 -1 18 -5 2 -4 -11 -52 -29 -105z
m-672 -1157 c105 -52 195 -71 348 -70 103 0 157 5 205 18 84 23 199 76 261
121 l49 35 0 -40 c0 -36 -5 -43 -47 -74 -253 -185 -653 -192 -908 -18 -66 46
-70 50 -73 91 l-3 42 58 -39 c32 -22 81 -51 110 -66z m41 -797 l272 -112 0
-57 0 -58 -273 -116 c-150 -64 -276 -116 -280 -116 -4 0 -7 33 -5 72 l3 73
168 69 c92 38 167 71 167 75 0 3 -76 35 -168 71 l-167 66 -3 72 c-2 39 1 72 5
72 4 0 131 -50 281 -111z m910 39 l-3 -72 -164 -68 c-90 -37 -166 -70 -168
-72 -2 -2 73 -34 166 -72 l171 -69 0 -72 c0 -40 -3 -73 -8 -73 -4 0 -129 52
-277 115 l-270 114 0 56 0 56 265 113 c146 63 271 114 278 115 10 1 12 -17 10
-71z"/>
</g>
</svg>
