<?xml version="1.0" standalone="no"?>
<!DOCTYPE svg PUBLIC "-//W3C//DTD SVG 20010904//EN"
 "http://www.w3.org/TR/2001/REC-SVG-20010904/DTD/svg10.dtd">
<svg version="1.0" xmlns="http://www.w3.org/2000/svg"
 width="216.000000pt" height="216.000000pt" viewBox="0 0 216.000000 216.000000"
 preserveAspectRatio="xMidYMid meet">
<metadata>
Created by potrace 1.11, written by Peter Selinger 2001-2013
</metadata>
<g transform="translate(0.000000,216.000000) scale(0.100000,-0.100000)"
fill="#000000" stroke="none">
<path d="M959 2155 c-2 -1 -25 -6 -51 -9 -161 -22 -389 -124 -515 -232 -12
-11 -30 -26 -40 -35 -43 -37 -128 -137 -172 -203 -126 -191 -182 -388 -176
-615 4 -150 6 -163 35 -265 56 -201 155 -363 306 -505 65 -61 179 -146 186
-139 2 2 17 -6 33 -17 17 -12 55 -32 85 -45 30 -14 62 -32 70 -40 8 -9 11 -10
6 -3 -6 10 -4 12 8 7 9 -3 16 -10 16 -15 0 -5 5 -9 11 -9 5 0 7 6 4 13 -4 6 2
2 13 -10 14 -16 22 -19 30 -11 7 7 15 8 19 4 4 -4 1 -11 -7 -16 -9 -6 -10 -10
-3 -10 6 0 15 5 18 10 3 6 11 10 16 10 6 0 8 -3 6 -8 -9 -13 386 -12 402 1 12
9 13 9 7 -1 -5 -8 0 -12 13 -12 12 0 21 5 21 11 0 8 4 8 13 1 9 -8 17 -8 27 0
12 8 11 8 -5 3 -15 -5 -17 -3 -9 5 6 6 29 13 50 15 22 1 39 4 39 5 0 1 9 3 19
5 11 2 23 11 28 19 5 9 14 16 19 16 33 0 234 119 293 173 13 12 35 31 47 43
74 65 163 183 213 280 34 67 74 163 81 194 33 138 38 179 39 290 1 137 -6 212
-27 280 -7 25 -14 47 -14 50 -1 52 -142 325 -175 338 -4 2 -8 9 -8 15 0 30
-282 276 -310 270 -3 0 -16 7 -30 17 -51 36 -203 90 -325 115 -33 7 -301 16
-306 10z"/>
<path d="M1415 29 c-4 -5 -11 -7 -16 -4 -5 4 -9 1 -9 -5 0 -6 11 -8 26 -6 33
6 39 12 20 19 -9 4 -18 2 -21 -4z"/>
</g>
</svg>
