<?xml version="1.0" encoding="UTF-8"?>
<svg width="44px" height="44px" viewBox="0 0 44 44" version="1.1" xmlns="http://www.w3.org/2000/svg" xmlns:xlink="http://www.w3.org/1999/xlink" xmlns:sketch="http://www.bohemiancoding.com/sketch/ns">
    <title>discord</title>
    <desc>Created for AWRP</desc>
    <defs></defs>
    <g id="Page-1" stroke="none" stroke-width="1" fill="none" fill-rule="evenodd" sketch:type="MSPage">
        <g id="footer" sketch:type="MSLayerGroup" transform="translate(-496.000000, -29.000000)">
            <g id="discord" transform="translate(496.000000, 29.000000)" sketch:type="MSShapeGroup">
                <circle id="background" fill-opacity="0" fill="#D8D8D8" cx="22" cy="22" r="22"></circle>
                <path d="M29.140411,32.5755559 C29.140411,32.5755559 28.2157534,31.4711039 27.4452055,30.4950765 C30.8099315,29.544734 32.0941781,27.4385696 32.0941781,27.4385696 C31.0410959,28.1320628 30.0393836,28.6200765 29.140411,28.9539806 C27.8561644,29.4933641 26.6232877,29.8529532 25.4160959,30.0584326 C22.9503425,30.5207614 20.6900685,30.3923367 18.7636986,30.0327477 C17.2996575,29.7502134 16.0410959,29.3392545 14.9880137,28.9282956 C14.3972603,28.6971313 13.755137,28.414597 13.1130137,28.055008 C13.0359589,28.0036381 12.9589041,27.9779532 12.8818493,27.9265833 C12.8304795,27.9008984 12.8047945,27.8752134 12.7791096,27.8495285 C12.3167808,27.5926792 12.0599315,27.4128847 12.0599315,27.4128847 C12.0599315,27.4128847 13.2928082,29.4676792 16.5547945,30.4437066 C15.7842466,31.419734 14.8339041,32.5755559 14.8339041,32.5755559 C9.15753425,32.3957614 7,28.6714463 7,28.6714463 C7,20.4008984 10.6986301,13.6971313 10.6986301,13.6971313 C14.3972603,10.9231587 17.9160959,11.0002134 17.9160959,11.0002134 L18.1729452,11.3084326 C13.5496575,12.6440491 11.4178082,14.6731587 11.4178082,14.6731587 C11.4178082,14.6731587 11.9828767,14.3649395 12.9332192,13.9282956 C15.6815068,12.7211039 17.864726,12.3871997 18.7636986,12.310145 C18.9178082,12.28446 19.0462329,12.2587751 19.2003425,12.2587751 C20.7671233,12.0532956 22.5393836,12.0019258 24.3886986,12.2074052 C26.8287671,12.4899395 29.4486301,13.2091176 32.119863,14.6731587 C32.119863,14.6731587 30.0907534,12.7467888 25.7243151,11.4111724 L26.0839041,11.0002134 C26.0839041,11.0002134 29.6027397,10.9231587 33.3013699,13.6971313 C33.3013699,13.6971313 37,20.4008984 37,28.6714463 C37,28.6714463 34.8167808,32.3957614 29.140411,32.5755559 L29.140411,32.5755559 Z M26.5719178,20.5806929 C25.1078767,20.5806929 23.9520548,21.8649395 23.9520548,23.4317203 C23.9520548,24.9985011 25.1335616,26.2827477 26.5719178,26.2827477 C28.0359589,26.2827477 29.1917808,24.9985011 29.1917808,23.4317203 C29.1917808,21.8649395 28.0359589,20.5806929 26.5719178,20.5806929 L26.5719178,20.5806929 Z M17.1969178,20.5806929 C15.7328767,20.5806929 14.5770548,21.8649395 14.5770548,23.4317203 C14.5770548,24.9985011 15.7585616,26.2827477 17.1969178,26.2827477 C18.6609589,26.2827477 19.8167808,24.9985011 19.8167808,23.4317203 C19.8424658,21.8649395 18.6609589,20.5806929 17.1969178,20.5806929 L17.1969178,20.5806929 Z" id="Path" fill="#FFFFFF"></path>
            </g>
        </g>
    </g>
</svg>