<?xml version="1.0" encoding="UTF-8"?>
<svg width="44px" height="44px" viewBox="0 0 44 44" version="1.1" xmlns="http://www.w3.org/2000/svg" xmlns:xlink="http://www.w3.org/1999/xlink" xmlns:sketch="http://www.bohemiancoding.com/sketch/ns">
    <title>steam</title>
    <desc>Created for AWRP</desc>
    <defs></defs>
    <g id="Page-1" stroke="none" stroke-width="1" fill="none" fill-rule="evenodd" sketch:type="MSPage">
        <g id="footer" sketch:type="MSLayerGroup" transform="translate(-378.000000, -29.000000)">
            <g id="steam" transform="translate(378.000000, 29.000000)" sketch:type="MSShapeGroup">
                <circle id="background" fill-opacity="0" fill="#D8D8D8" cx="22" cy="22" r="22"></circle>
                <path d="M22.2396662,16.0315264 L16.5050955,24.3618211 C15.5761546,24.3195782 14.6439951,24.482515 13.7601133,24.8466084 C13.3704731,25.0055221 13.005374,25.2006439 12.6628044,25.4259392 L0.0706060041,20.2421351 C0.0707045708,20.2421351 -0.220769247,25.0356955 0.993512218,28.6082357 L9.89549382,32.2813542 C10.3424637,34.2788386 11.712742,36.0309121 13.7343653,36.873758 C17.0419823,38.2557035 20.8557092,36.6806477 22.2316199,33.3716226 C22.5896785,32.5066495 22.7566385,31.5994335 22.7324997,30.6942291 L30.937675,24.8305159 C31.0040567,24.8325274 31.0724499,24.834539 31.1388316,24.834539 C36.0490628,24.834539 40.0400085,20.8315238 40.0400085,15.9156602 C40.0400085,10.9993944 36.0490628,7 31.1388316,7 C26.230612,7 22.2376546,10.9993944 22.2376546,15.9156602 C22.2376546,15.9550869 22.2376546,15.9945136 22.2396662,16.0315264 Z M20.8617439,32.7963149 C19.7968211,35.3530146 16.8587287,36.5659885 14.3048452,35.5018704 C13.1266713,35.0110484 12.2371571,34.1118787 11.7240068,33.0397143 L14.6216668,34.2406189 C16.5050955,35.0251294 18.665919,34.1319944 19.4488203,32.2491691 C20.2341354,30.3643323 19.3432131,28.1998879 17.4607902,27.4153774 L14.4653681,26.1742416 C15.6212136,25.7357203 16.9351682,25.7196278 18.1628265,26.2305654 C19.4005427,26.7455261 20.3608641,27.7151007 20.8697901,28.954225 C21.3787162,30.1933493 21.3767046,31.5612138 20.8617439,32.7963149 L20.8617439,32.7963149 Z M31.1388316,21.8574222 C27.8700378,21.8574222 25.2087367,19.192098 25.2087367,15.9156602 C25.2087367,12.6418375 27.8700378,9.97570872 31.1388316,9.97570872 C34.4096369,9.97570872 37.070938,12.6418375 37.070938,15.9156602 C37.070938,19.192098 34.4096369,21.8574222 31.1388316,21.8574222 L31.1388316,21.8574222 Z M26.6952836,15.9066082 C26.6952836,13.4418371 28.6907565,11.4427434 31.1488894,11.4427434 C33.6090339,11.4427434 35.6045068,13.4418371 35.6045068,15.9066082 C35.6045068,18.3715805 33.6090339,20.3688638 31.1488894,20.3688638 C28.6907565,20.3688638 26.6952836,18.3715805 26.6952836,15.9066082 L26.6952836,15.9066082 Z" id="Shape" fill="#FFFFFF"></path>
            </g>
        </g>
    </g>
</svg>