<?xml version="1.0" encoding="UTF-8"?>
<svg width="44px" height="44px" viewBox="0 0 44 44" version="1.1" xmlns="http://www.w3.org/2000/svg" xmlns:xlink="http://www.w3.org/1999/xlink" xmlns:sketch="http://www.bohemiancoding.com/sketch/ns">
    <title>vk</title>
    <desc>Created for AWRP</desc>
    <defs></defs>
    <g id="Page-1" stroke="none" stroke-width="1" fill="none" fill-rule="evenodd" sketch:type="MSPage">
        <g id="footer" sketch:type="MSLayerGroup" transform="translate(-437.000000, -29.000000)">
            <g id="vk" transform="translate(437.000000, 29.000000)" sketch:type="MSShapeGroup">
                <circle id="background" fill-opacity="0" fill="#D8D8D8" cx="22" cy="22" r="22"></circle>
                <path d="M21.6781415,30.0430768 L23.4712726,30.0430768 C23.4712726,30.0430768 24.0127828,29.9833906 24.2896647,29.685486 C24.5441513,29.4116671 24.536017,28.8978349 24.536017,28.8978349 C24.536017,28.8978349 24.5009443,26.4917812 25.6174524,26.1374649 C26.718537,25.7882195 28.132104,28.4628098 29.630289,29.4913198 C30.7632773,30.2693575 31.6242421,30.0990661 31.6242421,30.0990661 L35.6306348,30.0430768 C35.6306348,30.0430768 37.7263185,29.9137736 36.7325642,28.2660029 C36.6512215,28.1314175 36.1536576,27.04713 33.7536254,24.819396 C31.2412976,22.4877123 31.5780776,22.8649522 34.6041321,18.8317272 C36.4470196,16.3754946 37.1836466,14.876042 36.9534572,14.2338573 C36.7341487,13.6219909 35.3785779,13.7836201 35.3785779,13.7836201 L30.867755,13.8115091 C30.867755,13.8115091 30.5330878,13.7659783 30.2852565,13.9142963 C30.0428125,14.0593399 29.8872054,14.3982327 29.8872054,14.3982327 C29.8872054,14.3982327 29.1729741,16.2988 28.2211586,17.9154072 C26.2125218,21.3260963 25.4092363,21.5066348 25.0809076,21.29451 C24.3170253,20.8008548 24.5079166,19.3117548 24.5079166,18.2535603 C24.5079166,14.9480882 25.0092838,13.5699103 23.5315931,13.2131647 C23.0413183,13.094848 22.6801356,13.0165689 21.4260846,13.0037865 C19.8164496,12.9874123 18.4544344,13.0087514 17.6830521,13.3866251 C17.1698537,13.6379427 16.7739154,14.197834 17.0151968,14.2300541 C17.3134182,14.2697747 17.9884572,14.4122831 18.3463649,14.899283 C18.8087507,15.5283684 18.792588,16.9405623 18.792588,16.9405623 C18.792588,16.9405623 19.058272,20.8315958 18.1722703,21.3147929 C17.564313,21.6462906 16.7301805,20.9695617 14.9393732,17.8751583 C14.0219966,16.2901373 13.3291044,14.5378889 13.3291044,14.5378889 C13.3291044,14.5378889 13.1956811,14.2105109 12.9573577,14.0352542 C12.6683272,13.8229179 12.264466,13.7556256 12.264466,13.7556256 L7.97781231,13.7836201 C7.97781231,13.7836201 7.33446371,13.8015788 7.09804173,14.0814187 C6.8877128,14.3305176 7.08124652,14.8450895 7.08124652,14.8450895 C7.08124652,14.8450895 10.4370033,22.6964567 14.2370795,26.653093 C17.7218221,30.2811892 21.6781415,30.0430768 21.6781415,30.0430768" id="path2442" fill="#FFFFFF"></path>
            </g>
        </g>
    </g>
</svg>